<?xml version="1.0" encoding="iso-8859-1"?>
<!-- Generator: Adobe Illustrator 19.0.0, SVG Export Plug-In . SVG Version: 6.00 Build 0)  -->
<svg version="1.1" id="Capa_1" xmlns="http://www.w3.org/2000/svg" xmlns:xlink="http://www.w3.org/1999/xlink" x="0px" y="0px"
	 viewBox="0 0 512.001 512.001" style="enable-background:new 0 0 512.001 512.001;" xml:space="preserve">
<path style="fill:#E77587;" d="M301.599,467.652H94.459c-10.937,0-20.551-7.246-23.563-17.76l-11.307-39.467h276.88l-11.307,39.467
	C322.15,460.406,312.536,467.652,301.599,467.652z"/>
<path style="opacity:0.1;enable-background:new    ;" d="M119.177,449.892l-11.307-39.467H59.589l11.307,39.467
	c3.012,10.514,12.626,17.76,23.563,17.76h48.281C131.803,467.652,122.19,460.406,119.177,449.892z"/>
<path style="fill:#E77587;" d="M369.572,347.883l-7.093-39.905c51.412-9.14,91.78-48.02,102.841-99.053l5.143-23.728
	c3.208-14.8-1.588-29.691-12.831-39.835c-11.243-10.144-26.549-13.393-40.939-8.682l-52.739,17.25l-12.601-38.523l52.739-17.25
	c28.368-9.276,58.531-2.881,80.691,17.112c22.159,19.994,31.614,49.345,25.292,78.513l-5.143,23.728
	C490.372,284.68,437.241,335.854,369.572,347.883z"/>
<path style="opacity:0.1;enable-background:new    ;" d="M369.572,347.883c12.262-2.18,24.043-5.651,35.206-10.263l3.013-46.962
	c-13.581,8.425-28.878,14.398-45.313,17.32L369.572,347.883z M404.091,98.158l-52.739,17.25l12.601,38.523l52.739-17.25
	c0.331-0.108,0.664-0.191,0.997-0.291l2.684-41.832C414.925,95.203,409.476,96.397,404.091,98.158z"/>
<path style="fill:#F1F1F1;" d="M309.516,417.7H86.04c-35.685,0-65.235-27.715-67.52-63.327L0.043,66.395
	c-0.766-11.941,8.712-22.047,20.678-22.047h354.114c11.966,0,21.444,10.106,20.678,22.047l-18.477,287.978
	C374.752,389.985,345.201,417.7,309.516,417.7z"/>
<path style="opacity:0.1;enable-background:new    ;" d="M52.448,44.348H20.721c-11.966,0-21.444,10.106-20.678,22.047
	L18.52,354.373c2.285,35.612,31.835,63.327,67.52,63.327h97.035C64.036,397.414,57.327,94.92,52.448,44.348z"/>
<path style="fill:#E77587;" d="M245.506,133.084c-11.004-11.003-28.914-10.89-39.775,0.34
	c-10.632,10.993-10.156,28.611,0.659,39.426l35.037,35.037c2.253,2.253,5.907,2.253,8.16,0l35.036-35.037
	c10.814-10.814,11.291-28.433,0.659-39.426C274.42,122.194,256.509,122.08,245.506,133.084z"/>
<g>
	<path style="fill:#4A5058;" d="M130.905,206.195c-4.143,0-7.5-3.357-7.5-7.5v-62.899c0-4.143,3.357-7.5,7.5-7.5
		c4.143,0,7.5,3.357,7.5,7.5v62.899C138.405,202.838,135.048,206.195,130.905,206.195z"/>
	<path style="fill:#4A5058;" d="M150.003,143.296h-38.195c-4.143,0-7.5-3.357-7.5-7.5s3.357-7.5,7.5-7.5h38.195
		c4.143,0,7.5,3.357,7.5,7.5C157.503,139.939,154.145,143.296,150.003,143.296z"/>
	<path style="fill:#4A5058;" d="M150.003,208.688h-38.195c-4.143,0-7.5-3.357-7.5-7.5s3.357-7.5,7.5-7.5h38.195
		c4.143,0,7.5,3.357,7.5,7.5S154.145,208.688,150.003,208.688z"/>
	<path style="fill:#4A5058;" d="M198.029,336.614c-16.769,0-30.411-13.643-30.411-30.411v-22.061
		c0-16.77,13.643-30.412,30.411-30.412s30.411,13.643,30.411,30.412v22.061C228.44,322.972,214.798,336.614,198.029,336.614z
		 M198.029,268.729c-8.498,0-15.411,6.914-15.411,15.412v22.061c0,8.498,6.913,15.411,15.411,15.411s15.411-6.913,15.411-15.411
		v-22.061C213.44,275.644,206.527,268.729,198.029,268.729z"/>
	<path style="fill:#4A5058;" d="M303.227,334.122c-4.142,0-7.5-3.358-7.5-7.5v-42.165l-12.912,15.513
		c-1.425,1.712-3.537,2.702-5.765,2.702l0,0c-2.228,0-4.34-0.99-5.765-2.702l-12.911-15.513v42.165c0,4.142-3.357,7.5-7.5,7.5
		s-7.5-3.358-7.5-7.5v-62.899c0-3.158,1.979-5.979,4.949-7.053c2.973-1.073,6.296-0.172,8.315,2.255l20.411,24.523l20.412-24.523
		c2.02-2.429,5.346-3.33,8.315-2.255c2.971,1.074,4.949,3.895,4.949,7.053v62.899C310.727,330.765,307.37,334.122,303.227,334.122z"
		/>
	<path style="fill:#4A5058;" d="M145.184,334.122c-4.143,0-7.5-3.358-7.5-7.5v-42.165l-12.912,15.513
		c-1.425,1.712-3.537,2.702-5.765,2.702l0,0c-2.228,0-4.34-0.99-5.765-2.702l-12.911-15.513v42.165c0,4.142-3.358,7.5-7.5,7.5
		c-4.143,0-7.5-3.358-7.5-7.5v-62.899c0-3.158,1.979-5.979,4.949-7.053c2.974-1.073,6.296-0.172,8.315,2.255l20.411,24.523
		l20.412-24.523c2.021-2.429,5.347-3.33,8.315-2.255c2.971,1.074,4.949,3.895,4.949,7.053v62.899
		C152.684,330.765,149.326,334.122,145.184,334.122z"/>
</g>
<g>
</g>
<g>
</g>
<g>
</g>
<g>
</g>
<g>
</g>
<g>
</g>
<g>
</g>
<g>
</g>
<g>
</g>
<g>
</g>
<g>
</g>
<g>
</g>
<g>
</g>
<g>
</g>
<g>
</g>
</svg>
