<svg height="64" viewBox="0 0 64 64" width="64" xmlns="http://www.w3.org/2000/svg" xmlns:xlink="http://www.w3.org/1999/xlink"><linearGradient gradientTransform="matrix(1 0 0 -1 -822 -1026)" gradientUnits="userSpaceOnUse" id="a" x1="886.03" x2="854.03" y1="-1089.998" y2="-1057.998"><stop offset=".316" stop-color="#fff" stop-opacity="0"/><stop offset=".351" stop-color="#e9e9e9" stop-opacity=".05"/><stop offset=".454" stop-color="#acacac" stop-opacity=".202"/><stop offset=".557" stop-color="#787878" stop-opacity=".352"/><stop offset=".657" stop-color="#4d4d4d" stop-opacity=".498"/><stop offset=".753" stop-color="#2b2b2b" stop-opacity=".638"/><stop offset=".844" stop-color="#131313" stop-opacity=".772"/><stop offset=".929" stop-color="#050505" stop-opacity=".896"/><stop offset="1"/></linearGradient><path fill="url(#a)" opacity=".2" d="M64.029 64V30.059L49 15.029 15.059 48.971 30.088 64z"/><circle cx="32" cy="32" fill="#1369EA" r="24"/><defs><circle cx="32.029" cy="32" id="b" r="24"/></defs><clipPath id="c"><use overflow="visible" xlink:href="#b"/></clipPath><linearGradient gradientTransform="matrix(1 0 0 -1 -274 -299)" gradientUnits="userSpaceOnUse" id="d" x1="349.147" x2="297.731" y1="-372.228" y2="-320.812"><stop offset=".566" stop-opacity="0"/><stop offset=".584" stop-opacity=".04"/><stop offset="1"/></linearGradient><path clip-path="url(#c)" d="M72.357 68.583a5.297 5.297 0 0 0-.106-.106 5.499 5.499 0 0 0-.108-.108 3.904 3.904 0 0 0-.091-.091l-.122-.123-.102-.102-.105-.105-.106-.106-.106-.106-.105-.105-.115-.113-.092-.093a5.498 5.498 0 0 0-.108-.108l-.108-.109a5.222 5.222 0 0 0-.106-.105 3.531 3.531 0 0 0-.106-.106l-.105-.106a11.774 11.774 0 0 0-.112-.111l-.092-.092-.118-.119-.104-.103c-.034-.036-.07-.071-.105-.106l-.105-.105-.107-.107-.109-.107a4.435 4.435 0 0 0-.097-.098c-.037-.037-.073-.076-.112-.112l-.104-.105-.106-.106-.105-.105-.106-.105c-.034-.036-.071-.071-.106-.106l-.104-.104c-.034-.037-.071-.071-.106-.106-.035-.036-.07-.072-.106-.106l-.104-.105a5.222 5.222 0 0 0-.106-.105 3.531 3.531 0 0 0-.106-.106l-.106-.107-.106-.106a9.01 9.01 0 0 0-.097-.096 4.602 4.602 0 0 0-.121-.121 4.807 4.807 0 0 0-.101-.101c-.034-.036-.07-.071-.105-.106l-.105-.105a5.222 5.222 0 0 0-.106-.105l-.104-.104a2.04 2.04 0 0 0-.104-.104l-.117-.117a4.713 4.713 0 0 1-.1-.1l-.105-.105-.107-.106a.02.02 0 0 0-.008-.008c-.002-.66.2-1.52 1.046-2.181 1.537-1.2 3-3.035 3-5 0-1.798-.625-3.782-1.802-5.061-.034-.039-.073-.071-.108-.109-.033-.038-.072-.069-.105-.105-.032-.037-.07-.067-.104-.104-.032-.038-.071-.069-.106-.106-.032-.039-.071-.068-.105-.106-.033-.038-.072-.068-.105-.106-.033-.037-.072-.068-.106-.105-.033-.038-.072-.068-.106-.106l-.09-.089H71l2.387-1h-.359l.254-.105h-.36l.254-.106h-.36l.254-.106h-.357l.252-.104h-.359l.254-.106h-.359l.254-.105h-.359l.254-.106h-.36l.254-.106h-.36l.254-.105h-.359l.254-.105h-.359l.254-.106h-.357l.252-.104h-.36l.254-.106h-.36l.254-.106h-.359l.254-.105h-.359l.254-.105h-.36l.254-.106h-.358l.254-.106h-.359l.252-.104h-.359l.254-.106h-.359l.254-.105h-.36l.255-.106h-.361l.255-.106h-.36l.254-.105h-.359l.254-.105h-.357l.252-.105h-.359l.254-.105h-.36l.254-.106h-.36l.254-.106h-.359l.254-.105h-.359l.254-.106h-.358l.252-.104h-.361l.257-.107h-.359l.252-.105h-.359l.254-.105h-.359l.254-.105h-.36l.254-.106h-.36l.254-.106h-.358l.254-.105h-.36l.254-.105h-.36l.254-.106h-.356l.252-.104h-.36l.254-.106h-.36l.254-.106h-.359l.254-.105h-.36l.255-.106h-.359l.252-.104h-.36l.256-.107h-.358l.252-.105h-.359l.254-.105h-.359l.254-.105h-.36l.254-.106h-.36l.254-.106h-.356l.252-.104h-.363l.257-.106h-.357l.252-.105h-.36l.255-.106h-.361l.255-.106h-.36l.254-.105h-.359l.254-.105h-.36l.254-.106h-.358l.252-.104h-.358l.254-.106h-.36l.254-.106h-.359l.254-.105h-.359l.254-.105h-.36l.254-.106h-.36l.254-.106h-.357l.252-.104h-.361l.256-.107h-.359l.252-.104h-.358l.254-.106h-.36l.254-.106h-.359l.254-.105h-.359l.254-.105h-.36l.254-.106h-.356l.252-.104h-.362l.256-.107h-.358l.252-.105h-.359l.254-.105h-.36l.254-.105h-.36l.254-.106h-.359l.254-.106h-.357l.252-.105h-.362l.257-.106h-.357l.252-.104h-.36l.254-.106h-.36l.254-.106h-.359l.254-.105h-.359l.254-.105h-.357l.252-.105h-.361l.254-.105h-.359l.255-.106h-.361l.255-.106h-.359l.254-.105h-.36l.254-.106h-.36l.254-.106h-.357l.252-.104h-.359l.254-.106h-.359l.254-.105h-.359l.254-.105h-.36l.254-.106h-.36l.254-.106h-.359l.254-.105h-.359l.254-.105h-.359l.254-.106h-.358l.252-.105h-.362l.256-.106h-.357l.252-.105h-.359l.254-.105h-.36l.254-.106h-.358l.254-.106h-.361l.254-.105h-.357l.252-.105h-.361l.256-.106h-.357l.252-.104H60.8l.255-.106h-.36l.254-.106h-.359l.254-.105h-.36l.254-.106h-.356l.252-.104h-.36l.254-.106h-.36l.254-.106h-.359l.254-.105h-.359l.254-.105h-.358l.252-.105h-.363l.257-.107h-.356l.252-.104h-.361l.255-.106h-.359l.254-.105h-.36l.254-.105h-.36l.254-.106h-.358l.254-.106h-.36l.254-.105h-.359l.254-.106h-.359l.252-.104h-.358l.254-.106h-.36l.254-.106h-.359l.254-.105h-.359l.254-.105h-.361l.255-.106h-.359l.255-.106h-.361l.255-.105h-.358l.252-.105h-.359l.254-.105h-.36l.254-.106h-.36l.254-.106h-.359l.254-.105h-.359l.254-.105h-.36l.254-.106h-.358l.254-.106h-.358l.252-.104h-.36l.254-.106h-.359l.254-.105h-.36l.254-.105h-.358l.254-.106h-.358l.252-.105h-.362l.256-.107h-.359l.253-.106h-.358l.254-.106h-.359l.253-.106h-.36l.254-.107h-.359l.254-.106h-.359l.254-.106h-.357l.252-.105h-.362l.255-.107h-.359l.255-.106h-.359l.253-.106h-.359l.254-.106h-.359L55.39 31h-.36l.254-.107h-.356l.252-.105h-.36l.254-.106h-.359l.254-.106h-.361l.254-.107h-.357l.253-.106h-.36l.254-.106h-.358l.253-.106h-.361l.256-.107h-.359l.254-.106h-.359l.253-.106h-.36l.254-.106h-.359l.254-.106h-.359l.254-.106h-.358l.252-.105h-.362l.256-.107h-.358l.253-.106h-.359l.254-.106h-.358l.253-.106h-.36l.255-.106h-.361l.255-.106h-.36l.254-.106h-.357l.252-.105h-.363l.257-.107h-.358l.254-.106h-.358l.252-.105h-.36l.254-.106h-.359l.254-.106h-.359l.254-.106h-.359l.253-.106h-.36l.254-.106h-.357l.253-.106h-.363l.257-.107h-.357l.252-.105h-.36l.254-.106h-.36l.254-.106h-.359l.254-.106h-.359l.254-.106h-.358l.253-.106h-.361l.256-.107h-.359l.253-.106h-.36l.254-.106h-.358l.253-.106h-.36l.255-.107h-.361l.255-.106h-.36l.254-.106h-.357l.252-.105h-.36l.255-.107h-.359l.254-.106h-.36l.254-.106h-.358l.254-.106h-.361l.254-.106h-.361l.256-.107h-.358l.252-.105h-.358l.254-.106h-.36l.254-.106h-.36l.254-.106h-.359l.254-.106h-.36l.254-.106h-.358l.254-.106h-.361l.254-.106h-.359l.254-.106h-.358l.253-.106h-.359l.254-.106h-.36l.254-.106h-.36l.254-.106h-.359l.254-.106h-.357l.252-.106h-.358l.253-.106h-.361l.256-.107h-.359l.252-.106h-.359l.254-.106h-.359l.254-.106h-.36l.254-.106h-.36l.254-.106h-.357l.253-.106h-.358l.252-.106h-.359l.254-.106h-.359l.254-.106h-.359l.253-.106h-.361l.255-.107h-.359l.254-.106h-.361l.255-.107h-.356l.252-.105h-.361l.255-.107h-.358l.252-.106h-.359l.254-.106h-.359l.254-.106h-.361l.255-.107h-.358l.252-.106h-.359l.254-.106h-.357l.252-.106h-.359l.254-.106h-.36l.255-.106h-.359l.253-.106h-.359l.254-.106h-.36l.254-.106h-.359l.254-.106H44.7l.254-.106h-.357l.253-.106h-.36l.254-.106h-.359l.254-.106h-.359l.254-.106h-.359l.253-.106h-.36l.256-.107h-.361l.254-.106h-.359l.254-.106h-.359l.254-.106h-.36l.254-.106h-.36l.254-.106h-.357l.253-.106h-.36l.254-.106h-.359l.254-.106h-.359l.254-.106h-.36l.254-.106h-.358l.252-.106h-.358l.253-.106h-.361l.256-.107h-.359l.253-.105h-.36l.255-.107h-.358l.252-.106h-.36l.255-.107h-.359l.254-.106h-.36l.254-.106h-.358l.252-.106h-.36l.255-.107h-.357l.252-.105h-.36l.255-.107h-.359l.254-.106h-.361l.255-.106h-.36l.059-.209h-9.386c-4.165 0-8 3.345-8 7 0 1.88.724 3.529 1.981 4.704.036.034.069.071.105.104.036.035.069.072.106.106.036.035.069.072.106.106.037.036.071.073.109.108.035.035.068.071.105.105.036.035.07.072.107.107.036.035.069.071.105.105.035.034.067.07.104.104.038.037.073.075.111.111.035.034.067.07.103.104.037.036.071.073.108.108.035.035.068.071.104.104.037.036.072.074.11.109l.103.104c.036.035.07.072.107.107.036.035.07.072.107.107.035.034.068.07.104.104.037.036.071.074.108.109.036.035.07.072.106.106.036.035.07.072.107.107.036.035.07.072.106.106.035.035.068.071.105.105.036.035.069.072.106.106.036.035.07.072.107.107.037.036.071.073.109.108.035.034.068.07.104.104.036.035.069.072.106.106.036.035.069.072.106.106.036.036.07.073.107.107.036.035.069.072.105.105.037.036.071.073.108.108.035.034.067.07.103.104.036.035.07.073.108.107.036.036.07.073.108.107.035.035.068.071.105.105.035.034.068.07.104.104.037.037.072.074.11.109.034.034.067.07.102.104.037.037.072.074.11.109.036.035.069.071.105.105l.105.105c.036.034.069.07.106.105.036.035.07.072.107.105.035.034.068.071.104.104.036.035.07.071.107.106.036.035.071.073.108.107.036.035.07.072.106.105.036.035.069.072.105.105.036.035.069.071.106.105.036.035.069.072.106.106.036.035.069.071.106.104.036.037.07.074.107.107.036.035.069.071.106.106.036.034.068.069.104.104.038.035.073.073.111.109.034.034.066.068.102.102.037.037.072.075.11.11.034.033.066.069.102.103.037.037.072.074.111.11l.021.022h-1.277c-5.159 0-9 2.593-9 6 0 1.078.509 2.082 1.365 2.951.035.037.074.074.111.11.033.034.069.067.103.103.035.037.073.072.109.109l.105.104c.035.036.072.071.108.106.033.035.069.068.103.104.034.037.072.072.107.107.034.037.071.07.106.106.034.036.071.069.105.104.034.037.071.071.106.106.034.037.072.072.108.108.035.037.073.072.109.107l.102.102c.035.037.073.072.11.109.033.035.069.068.103.104.034.036.071.069.106.106l.105.104c.036.038.075.075.112.112.032.033.067.065.1.1.035.037.073.072.11.109.034.035.071.069.106.104.034.036.07.07.105.106l.107.106c.034.035.071.07.106.104.033.035.07.07.104.104.035.037.073.072.109.109l.105.104.107.106c.034.036.071.069.106.104.034.036.071.071.106.106.034.036.071.069.105.104.035.037.074.073.11.11.032.034.068.065.101.101.035.037.073.073.109.109.035.037.073.072.108.107.032.035.067.066.1.101.036.038.075.074.111.112.033.035.07.068.104.104l.111.11c.032.034.068.067.101.101.035.039.073.073.11.11.033.035.07.069.104.104.034.035.072.07.108.106.033.035.069.069.104.104l.106.105c.034.036.072.071.107.107l.106.105.108.107c.033.035.069.068.103.103.035.038.073.073.109.11l.105.104c.033.035.069.069.104.104.034.036.072.071.107.106.035.037.073.072.108.108.034.036.072.071.108.106.033.035.068.068.102.103.035.037.073.073.109.108a3.4 3.4 0 0 0 .104.104c.035.037.074.073.11.11.033.035.069.068.103.104.034.035.071.069.106.104l.109.108c.034.037.071.07.106.105.033.036.07.068.104.104.034.037.071.071.106.106.034.037.072.071.108.108.033.035.069.068.104.104.034.036.071.071.107.105.035.037.073.072.108.108.033.035.069.068.103.104.035.037.073.072.108.107.035.037.073.072.108.108.033.034.068.067.102.103l.109.107c.035.037.072.072.108.107.033.035.068.067.103.104.035.037.074.074.111.111.033.033.069.066.103.102.034.036.071.071.106.105.034.037.071.072.106.107.035.037.073.072.109.109.032.033.068.066.101.102l.107.106.11.11c.033.035.07.068.104.104.035.037.073.072.109.109.033.035.07.068.104.104.033.036.07.07.105.105.033.035.068.068.104.104.037.039.078.076.115.115.031.033.065.063.098.096.035.039.074.075.111.113.033.035.07.068.104.104.032.035.069.069.104.104.035.037.074.073.11.11.033.035.068.067.104.104.035.037.073.072.109.109.032.033.068.066.102.102.035.037.073.072.109.109l.107.106c.031.035.068.068.104.104.035.037.074.074.111.111.031.034.068.067.104.103.033.035.069.069.104.104l.108.107c.033.037.071.072.107.107.032.035.066.067.102.102.037.039.075.075.112.113.032.033.065.066.101.099.035.039.074.076.112.114.033.035.069.068.104.104.031.034.068.067.103.104l.113.113.101.1c.035.037.073.072.109.109.034.037.07.07.105.105.033.036.07.068.104.104.033.035.069.069.104.104.035.039.074.076.112.114l.103.102c.035.037.072.072.109.108.032.034.068.069.104.104.033.035.07.069.105.104.034.038.072.073.109.11.033.035.068.068.104.104.034.037.071.072.107.107.033.035.068.068.104.104.035.037.073.073.109.109.034.037.072.072.107.107.033.035.07.069.104.104.033.036.07.069.104.104.033.035.068.069.104.104l.113.113c.033.035.068.067.104.103.033.036.07.069.105.104.033.037.072.072.107.107.031.035.067.068.102.104l.111.111c.033.035.069.069.104.104.034.037.071.072.106.106.031.035.068.068.103.103.036.039.075.076.113.115l.103.102c.033.036.07.07.104.105.034.037.073.072.11.109.031.034.066.066.101.102l.112.112c.031.033.066.066.101.101.035.037.073.072.108.108.035.037.074.073.11.11.031.033.066.064.099.098.037.039.076.077.115.115.031.034.067.066.102.102.033.036.07.07.107.106.033.036.07.071.105.106.033.035.07.07.105.105.034.036.071.07.106.105.034.037.071.072.106.107.033.035.069.068.104.104.034.037.071.072.106.106.033.037.07.071.106.106.034.037.071.072.106.107.033.035.07.07.105.105.032.035.068.068.104.104.037.039.078.078.117.117.029.032.063.063.096.096.033.035.072.071.107.107.034.037.071.07.107.107l.105.105.106.105a3.4 3.4 0 0 0 .104.104c.035.038.074.074.111.112.032.033.068.066.104.102.033.036.07.07.104.106s.072.071.107.106l.106.105c.033.036.07.07.105.105.033.037.07.07.105.105.033.037.07.072.106.107l.106.105c.033.035.068.069.104.104.035.037.073.074.109.11.033.035.07.069.104.104l.106.105c.031.035.068.068.103.104.036.039.077.076.115.115.03.033.065.065.099.1.035.036.073.072.109.107.033.037.07.069.104.104.034.037.071.071.107.106.034.037.07.071.105.106.033.035.068.068.104.103.036.039.075.076.113.115.031.033.066.065.101.1.035.037.074.074.11.111.033.035.07.068.105.104.032.035.069.068.104.104.033.037.07.071.107.107.032.036.068.068.104.104.033.037.07.071.105.106l.111.11c.032.035.068.068.104.104.035.037.072.072.108.107a3.4 3.4 0 0 0 .104.104c.033.037.07.071.106.107.032.034.068.069.103.104.035.037.074.073.109.109.035.037.073.073.109.108.031.035.068.067.102.103.035.037.074.073.11.11.033.035.069.067.104.103.033.037.07.071.106.106.034.037.071.072.106.106.031.035.067.068.103.104l.111.111c.032.034.067.067.103.103.035.038.074.073.111.11.033.035.068.068.104.104.034.036.071.07.106.105.034.037.071.071.106.106.033.036.07.071.105.106.034.037.072.072.107.107.031.034.067.067.102.102.035.037.074.074.111.111.033.035.068.069.104.104.034.036.071.071.106.106l.106.105c.033.035.07.07.105.105.033.036.07.071.105.106.032.035.068.067.104.104l.111.111c.033.035.07.069.105.104.033.035.068.069.104.104.035.037.071.072.107.106.034.037.071.072.105.106.035.037.072.071.107.107.034.036.071.069.106.106.032.033.067.066.101.102l.112.111c.032.035.069.069.104.104.033.036.07.071.105.106.033.035.07.07.105.105l.106.105c.034.037.071.072.106.106.031.035.067.069.103.104.037.039.077.076.115.115.03.032.065.063.098.096.035.037.073.074.109.109.034.036.071.071.106.106.033.036.07.071.105.106.033.035.07.07.105.105.033.036.07.07.104.105.034.037.073.071.108.107.033.036.069.07.104.105.034.035.071.07.106.104.033.036.07.071.105.106l.105.105.106.106c.032.034.068.067.103.104.037.038.076.075.115.113.031.034.066.066.1.1.033.037.072.071.107.107.034.036.071.07.106.105.034.037.071.071.106.106.033.036.07.071.105.106.032.035.068.067.102.103.037.04.078.078.117.117.031.032.065.063.098.096.035.037.072.073.108.109.034.036.071.071.106.106.033.035.07.07.105.105.034.036.071.07.106.105.032.035.069.069.104.104.035.039.074.075.111.112.032.035.068.067.102.102.033.036.069.069.104.104.036.039.076.076.112.113.033.035.07.068.104.104s.071.07.106.105c.033.036.07.071.105.106.034.037.072.071.107.108l.104.103c.034.037.072.071.108.108.032.035.069.068.104.104.033.037.07.072.106.107l.106.105c.033.036.07.071.105.105.034.037.071.072.107.107.033.035.068.069.104.104l.109.111.104.103c.034.036.071.071.107.106.033.036.07.071.105.106.034.036.071.071.106.106l.106.105c.033.037.071.072.107.107.032.035.066.067.102.102.035.038.072.074.109.111.033.035.07.068.105.104.033.036.07.071.105.106 1.823 1.954 5.249 3.22 8.816 3.22C69.912 79 74 76 74 72c0-1.373-.666-2.455-1.643-3.417z" fill="url(#d)" opacity=".5"/><path d="M37 34s-2-1.15-2-2c0 0-.498-1.828 1-3 1.537-1.2 3-3.035 3-5 0-2.336-1.045-5-3-6h3l2.387-1h-9.386c-4.165 0-8 3.345-8 7 0 3.735 2.849 6.561 7.086 6.561.295 0 .581-.006.861-.025-.274.525-.473 1.119-.473 1.734 0 1.037.818 2.042 1.524 2.73h-2c-5.159 0-9 2.593-9 6 0 3.355 4.872 6 10.031 6 5.882 0 9.97-3 9.97-7 0-2.689-2.545-4.264-5-6zm-4-4c-2.396 0-5.586-2.857-6-6-.413-3.144 1.606-6.071 4-6 2.395.071 4.604 2.908 5.018 6.052C36.43 27.195 35 30 33 30zm-1 15c-3.566 0-7-1.289-7-4 0-2.658 3.434-5.038 7-5 .832.009 2 0 2 0 1 0 2.881.881 4 2 1 1 1 2.674 1 3 0 3-1.984 4-7 4z" fill="#FFF"/></svg>