<svg height="64" viewBox="0 0 64 64" width="64" xmlns="http://www.w3.org/2000/svg" xmlns:xlink="http://www.w3.org/1999/xlink"><linearGradient gradientTransform="matrix(1 0 0 -1 -1370 -1753)" gradientUnits="userSpaceOnUse" id="a" x1="1434.03" x2="1402.03" y1="-1816.999" y2="-1784.999"><stop offset=".316" stop-color="#fff" stop-opacity="0"/><stop offset=".351" stop-color="#e9e9e9" stop-opacity=".05"/><stop offset=".454" stop-color="#acacac" stop-opacity=".202"/><stop offset=".557" stop-color="#787878" stop-opacity=".352"/><stop offset=".657" stop-color="#4d4d4d" stop-opacity=".498"/><stop offset=".753" stop-color="#2b2b2b" stop-opacity=".638"/><stop offset=".844" stop-color="#131313" stop-opacity=".772"/><stop offset=".929" stop-color="#050505" stop-opacity=".896"/><stop offset="1"/></linearGradient><path fill="url(#a)" opacity=".2" d="M64.029 64V30.059L49 15.029 15.059 48.971 30.088 64z"/><circle cx="32" cy="32" fill="#0E76A8" r="24"/><defs><circle cx="32.029" cy="32" id="b" r="24"/></defs><clipPath id="c"><use overflow="visible" xlink:href="#b"/></clipPath><linearGradient gradientTransform="matrix(1 0 0 -1 -274 -299)" gradientUnits="userSpaceOnUse" id="d" x1="348.459" x2="291.319" y1="-378.814" y2="-321.674"><stop offset=".525" stop-opacity="0"/><stop offset=".579" stop-opacity=".113"/><stop offset="1"/></linearGradient><path clip-path="url(#c)" d="M75.518 60.893c-.037-.035-.07-.074-.109-.106-.037-.035-.07-.074-.109-.108-.035-.033-.068-.07-.105-.104-.037-.035-.07-.074-.109-.108-.036-.034-.066-.071-.105-.104-.037-.034-.069-.073-.108-.106-.036-.034-.068-.071-.106-.104-.037-.035-.07-.074-.107-.107-.038-.036-.072-.075-.112-.109-.035-.033-.065-.068-.103-.102-.039-.035-.071-.075-.111-.109-.036-.033-.066-.07-.104-.104-.039-.035-.072-.074-.11-.107-.036-.035-.069-.072-.107-.105-.036-.034-.067-.072-.106-.105-.037-.035-.069-.074-.108-.107-.037-.034-.069-.072-.108-.106-.037-.035-.07-.073-.108-.106-.036-.032-.067-.07-.104-.104-.037-.035-.07-.074-.109-.107-.036-.035-.068-.071-.106-.104-.037-.035-.069-.073-.108-.106-.037-.035-.069-.074-.107-.106-.037-.034-.068-.072-.105-.104-.039-.037-.074-.076-.115-.111-.033-.031-.063-.067-.098-.1-.039-.037-.076-.076-.117-.113-.035-.032-.064-.068-.103-.101-.037-.036-.071-.075-.11-.108-.035-.035-.067-.071-.105-.104-.037-.035-.07-.073-.107-.106-.039-.035-.07-.074-.109-.107-.037-.034-.069-.072-.107-.105-.037-.035-.07-.072-.109-.106-.035-.033-.066-.07-.104-.103-.037-.037-.07-.076-.109-.109-.037-.034-.068-.071-.106-.104-.037-.034-.07-.073-.108-.106-.037-.035-.07-.074-.109-.107-.037-.033-.068-.072-.105-.104-.038-.035-.07-.074-.109-.108-.037-.034-.068-.071-.105-.104-.037-.035-.069-.072-.107-.106-.037-.035-.07-.073-.109-.106-.036-.035-.069-.072-.108-.106-.036-.034-.067-.071-.104-.104s-.069-.072-.108-.105c-.037-.035-.069-.074-.108-.107-.037-.033-.068-.07-.105-.104-.038-.035-.071-.074-.11-.108-.036-.034-.069-.073-.108-.106-.035-.032-.066-.069-.104-.104-.038-.035-.07-.074-.109-.107-.037-.035-.07-.073-.108-.106-.036-.034-.068-.072-.106-.104-.037-.035-.07-.074-.109-.106-.036-.035-.069-.074-.107-.106-.036-.035-.066-.072-.105-.104-.037-.036-.07-.075-.109-.109-.037-.034-.07-.073-.109-.106-.035-.033-.066-.07-.104-.104-.037-.035-.071-.074-.11-.109-.036-.033-.067-.07-.106-.104-.037-.035-.07-.074-.109-.107-.036-.033-.066-.07-.104-.104-.037-.036-.071-.075-.11-.109-.036-.033-.068-.072-.106-.104-.037-.035-.07-.074-.109-.107-.036-.035-.069-.074-.108-.106-.036-.034-.067-.071-.104-.104-.037-.035-.07-.072-.109-.107-.036-.033-.066-.07-.105-.104-.037-.035-.07-.074-.109-.109-.036-.033-.068-.07-.106-.104-.036-.035-.069-.072-.108-.107-.037-.035-.071-.073-.11-.108-.035-.033-.065-.069-.104-.103-.037-.035-.07-.074-.11-.108-.036-.033-.067-.07-.104-.103-.037-.035-.07-.074-.109-.108-.035-.034-.068-.072-.106-.105-.038-.036-.071-.075-.11-.108-.037-.034-.068-.072-.106-.105-.036-.033-.067-.07-.106-.104-.037-.034-.068-.073-.107-.106-.037-.035-.068-.071-.106-.104-.036-.035-.069-.073-.108-.107-.037-.035-.071-.074-.111-.107-.034-.033-.064-.069-.102-.103-.039-.036-.073-.076-.114-.11-.035-.035-.067-.072-.104-.104-.037-.035-.068-.073-.107-.106-.036-.033-.068-.072-.106-.104-.038-.036-.071-.075-.11-.109-.037-.034-.068-.071-.106-.104-.036-.033-.067-.07-.104-.104-.039-.036-.072-.074-.113-.109-.034-.033-.066-.07-.104-.104-.037-.035-.07-.074-.109-.107-.037-.035-.069-.074-.107-.106-.037-.034-.068-.072-.107-.104-.035-.035-.068-.072-.106-.105-.037-.035-.07-.074-.108-.107-.037-.035-.07-.074-.109-.107-.035-.032-.065-.069-.103-.102-.039-.037-.073-.076-.114-.111-.035-.034-.067-.071-.105-.104-.037-.034-.069-.071-.107-.104-.035-.034-.068-.072-.106-.105-.036-.035-.069-.072-.107-.107-.036-.035-.069-.072-.108-.106-.037-.034-.069-.072-.107-.104-.038-.035-.07-.074-.111-.108-.035-.034-.066-.071-.104-.104s-.069-.072-.107-.105c-.037-.034-.07-.072-.107-.105-.036-.035-.069-.072-.107-.107-.037-.033-.068-.071-.107-.105-.039-.036-.072-.074-.112-.109-.035-.033-.065-.068-.104-.102-.037-.036-.07-.074-.108-.107-.036-.035-.068-.071-.105-.104-.038-.035-.071-.074-.11-.106-.035-.035-.066-.072-.104-.104-.038-.037-.071-.076-.112-.111-.035-.032-.066-.069-.104-.103-.036-.035-.069-.073-.108-.107-.037-.033-.07-.072-.107-.105-.036-.034-.068-.071-.106-.104-.037-.034-.069-.073-.108-.106-.037-.035-.068-.073-.106-.106-.038-.035-.071-.073-.11-.108-.035-.033-.065-.068-.104-.102-.039-.037-.073-.076-.113-.111-.037-.033-.068-.07-.105-.104-.037-.034-.068-.071-.105-.104-.038-.035-.07-.074-.109-.107-.037-.035-.068-.073-.106-.106-.038-.034-.071-.073-.11-.108-.035-.032-.068-.069-.105-.103-.036-.036-.07-.075-.109-.108-.036-.033-.066-.07-.104-.104-.039-.036-.072-.075-.112-.108-.036-.035-.068-.072-.106-.104-.035-.034-.066-.072-.104-.104-.037-.035-.071-.074-.11-.108-.037-.034-.068-.072-.107-.104-.037-.035-.069-.074-.108-.107-.036-.034-.067-.071-.104-.104-.039-.034-.072-.073-.111-.108-.036-.033-.067-.07-.105-.104-.035-.035-.068-.072-.105-.105-.037-.035-.071-.074-.11-.108-.037-.035-.069-.073-.108-.106-.037-.033-.068-.071-.106-.104-.036-.034-.067-.071-.104-.104-.039-.035-.072-.074-.111-.107-.036-.035-.068-.072-.106-.105-.036-.035-.069-.072-.108-.105-.037-.036-.07-.074-.109-.108-.035-.032-.064-.069-.102-.101-.039-.036-.072-.076-.112-.111-.037-.033-.07-.072-.109-.105-.036-.034-.067-.071-.104-.104-.037-.035-.069-.073-.108-.106-.037-.035-.069-.072-.108-.106-.037-.034-.067-.071-.105-.104-.037-.035-.068-.072-.107-.105-.039-.036-.072-.076-.113-.111-.034-.031-.065-.068-.103-.1-.036-.036-.071-.075-.11-.109-.037-.035-.069-.072-.108-.107-.035-.032-.065-.069-.104-.103-.037-.034-.071-.075-.11-.108-.036-.034-.068-.072-.106-.104-.037-.036-.07-.075-.109-.108-.036-.033-.066-.069-.104-.103-.038-.036-.071-.076-.112-.11-.037-.035-.069-.072-.107-.105-.036-.034-.067-.071-.105-.104-.037-.035-.068-.074-.107-.107-.038-.035-.071-.074-.11-.108-.036-.034-.067-.071-.106-.104-.035-.033-.066-.07-.104-.104-.038-.035-.071-.074-.11-.109-.037-.032-.067-.069-.104-.103-.038-.036-.071-.075-.111-.11-.036-.033-.067-.07-.104-.104-.037-.035-.07-.074-.109-.107-.037-.035-.068-.074-.107-.106-.037-.034-.069-.072-.107-.104-.037-.035-.07-.074-.109-.107-.035-.033-.066-.071-.104-.104-.037-.034-.07-.073-.109-.106-.036-.034-.067-.072-.106-.105-.036-.033-.069-.072-.107-.105-.037-.035-.07-.073-.109-.107-.037-.035-.07-.072-.107-.105-.037-.035-.07-.073-.108-.106-.036-.033-.067-.069-.104-.104s-.07-.074-.11-.107c-.036-.034-.067-.072-.106-.105-.037-.033-.068-.072-.106-.104-.037-.035-.069-.074-.108-.108-.037-.033-.068-.07-.106-.104-.037-.035-.069-.073-.108-.107-.037-.035-.07-.072-.109-.107-.035-.033-.067-.07-.105-.104-.037-.035-.068-.072-.107-.105-.037-.035-.071-.074-.11-.108-.036-.034-.066-.069-.104-.103-.037-.037-.072-.076-.111-.109-.036-.035-.068-.072-.106-.105-.036-.033-.067-.07-.104-.104-.039-.037-.072-.076-.112-.111-.036-.033-.068-.07-.104-.104-.037-.034-.068-.072-.106-.104-.037-.036-.07-.073-.109-.108-.036-.033-.069-.071-.106-.104-.037-.036-.071-.075-.111-.108-.035-.033-.064-.069-.104-.103-.037-.036-.072-.076-.112-.11-.035-.033-.066-.07-.104-.104-.037-.035-.07-.075-.111-.109-.036-.035-.069-.072-.108-.105-.035-.033-.065-.069-.103-.102-.039-.037-.073-.076-.114-.113-.034-.031-.063-.067-.101-.1-.039-.037-.074-.078-.115-.113-.035-.033-.066-.068-.104-.102-.038-.035-.07-.074-.109-.107-.037-.035-.067-.071-.105-.104-.037-.036-.07-.075-.109-.108-.039-.035-.072-.074-.111-.108-.035-.033-.065-.069-.103-.103-.038-.035-.071-.074-.11-.107-.037-.034-.067-.071-.105-.104-.037-.034-.07-.075-.111-.108-.035-.034-.067-.071-.104-.104-.037-.034-.07-.073-.109-.106-.036-.035-.067-.072-.104-.105-.038-.035-.071-.074-.11-.107-.037-.035-.071-.074-.11-.108-.035-.033-.067-.07-.104-.103-.036-.035-.067-.074-.106-.106-.037-.034-.068-.071-.105-.104-.038-.035-.072-.074-.112-.109-.036-.034-.069-.072-.108-.105-.035-.033-.065-.07-.104-.104-.038-.036-.072-.076-.113-.111-.035-.032-.064-.068-.102-.1-.039-.037-.073-.077-.114-.112-.034-.033-.067-.07-.104-.103-.036-.037-.069-.074-.108-.108-.037-.034-.069-.072-.106-.104-.037-.035-.07-.074-.109-.107-.035-.034-.067-.071-.105-.104-.037-.035-.068-.074-.107-.107-.037-.035-.07-.074-.109-.108-.037-.034-.07-.071-.107-.106-.037-.033-.07-.071-.108-.105-.036-.033-.067-.07-.104-.104-.037-.035-.069-.073-.108-.106-.037-.035-.07-.074-.109-.106-.036-.035-.067-.072-.106-.105-.036-.035-.069-.073-.107-.107-.037-.033-.068-.072-.107-.104-.037-.034-.067-.072-.106-.105-.037-.036-.071-.075-.11-.109-.037-.035-.068-.072-.106-.105-.037-.035-.069-.072-.107-.105-.036-.035-.069-.074-.108-.108-.037-.034-.068-.072-.106-.105-.037-.034-.067-.072-.106-.105-.037-.036-.07-.074-.109-.108-.037-.035-.069-.073-.107-.106-.037-.035-.068-.073-.107-.106-.037-.035-.07-.074-.109-.108-.035-.033-.066-.07-.104-.102-.037-.036-.07-.075-.11-.109-.037-.035-.07-.073-.108-.107-.037-.035-.07-.073-.107-.106-.037-.035-.069-.073-.107-.106-.037-.034-.068-.072-.105-.105-.039-.035-.071-.074-.11-.108-.036-.034-.067-.072-.106-.104-.037-.036-.07-.075-.109-.109-.036-.034-.068-.072-.106-.104-.034-.033-.065-.07-.104-.103-.038-.037-.072-.076-.113-.111-.036-.035-.069-.072-.106-.105-.037-.035-.069-.073-.107-.106-.037-.035-.07-.073-.107-.106-.037-.034-.068-.072-.105-.104-.038-.036-.072-.075-.111-.109-.035-.035-.068-.072-.107-.105-.035-.035-.068-.072-.106-.105-.037-.035-.069-.073-.108-.106-.035-.035-.067-.073-.105-.106-.037-.035-.07-.073-.107-.107-.906-.853-2.289-1.332-4.408-1.332-1.688 0-3.057.518-4.013 1.249v-.146h-.106v-.106h-.108v-.106h-.31v-.106h-.106v-.106h-.108v-.106h-.106v-.106h-.11v-.105h-.107v-.106h-.108v-.106h-.107v-.106h-.108v-.106h-1.226c-.024-.025-.052-.046-.078-.07-.034-.036-.07-.07-.106-.105a3.655 3.655 0 0 0-.109-.107c-.035-.037-.071-.071-.108-.106a2.116 2.116 0 0 0-.107-.105 3.655 3.655 0 0 0-.109-.107 3.52 3.52 0 0 0-.107-.105 2.724 2.724 0 0 0-.108-.107c-.035-.037-.071-.071-.108-.106-.035-.037-.071-.071-.107-.106-.035-.037-.071-.071-.108-.106a2.706 2.706 0 0 0-.109-.106c-.035-.037-.071-.071-.107-.106-.035-.037-.071-.071-.108-.106-.035-.037-.071-.071-.107-.106a2.156 2.156 0 0 0-.108-.106 2.724 2.724 0 0 0-.108-.107c-.035-.037-.071-.071-.108-.106l-.106-.105c-.036-.038-.073-.073-.111-.109-.034-.036-.07-.07-.106-.104a2.724 2.724 0 0 0-.108-.107 3.655 3.655 0 0 0-.109-.107c-.034-.036-.069-.069-.105-.104a3.655 3.655 0 0 0-.109-.107 3.655 3.655 0 0 0-.109-.107c-.035-.037-.071-.071-.108-.106-.035-.037-.071-.071-.107-.106-.035-.037-.071-.071-.108-.106-.035-.037-.071-.071-.108-.106a2.156 2.156 0 0 0-.108-.106c-.035-.037-.071-.071-.107-.105a2.724 2.724 0 0 0-.108-.107 2.769 2.769 0 0 0-.109-.108l-.106-.105a2.687 2.687 0 0 0-.108-.106c-.035-.037-.071-.071-.107-.106-.035-.037-.071-.071-.108-.106a2.724 2.724 0 0 0-.108-.107 2.204 2.204 0 0 0-.109-.107 2.116 2.116 0 0 0-.107-.105 2.724 2.724 0 0 0-.108-.107c-.035-.037-.071-.071-.107-.106-.035-.037-.071-.071-.108-.106-.035-.037-.071-.071-.108-.106-.035-.037-.071-.071-.108-.106l-.106-.105a2.801 2.801 0 0 0-.11-.108 3.655 3.655 0 0 0-.109-.107 2.575 2.575 0 0 0-.105-.104 2.724 2.724 0 0 0-.108-.107c-.035-.037-.072-.072-.109-.107a3.52 3.52 0 0 0-.107-.105 2.156 2.156 0 0 0-.108-.106c-.035-.037-.071-.071-.107-.106a3.655 3.655 0 0 0-.109-.107l-.106-.105c-.035-.037-.071-.071-.108-.106a3.746 3.746 0 0 0-.11-.108 3.455 3.455 0 0 0-.106-.104 3.655 3.655 0 0 0-.109-.107 2.65 2.65 0 0 0-.107-.105 3.655 3.655 0 0 0-.109-.107 2.082 2.082 0 0 0-.107-.104 3.52 3.52 0 0 0-.107-.105c-.035-.037-.072-.072-.109-.107-.035-.037-.071-.071-.108-.106a2.618 2.618 0 0 0-.106-.105 2.788 2.788 0 0 0-.11-.108c-.035-.037-.071-.071-.108-.106-.034-.036-.069-.069-.105-.104a2.237 2.237 0 0 0-.11-.108 2.116 2.116 0 0 0-.107-.105A2.835 2.835 0 0 0 22.25 19a3.033 3.033 0 0 0-3.033 3.033c0 .867.368 1.644.951 2.196.036.038.073.073.111.109.034.036.069.07.105.104.036.038.073.073.111.109.034.036.069.069.105.104.035.037.071.071.108.106.035.037.071.072.108.107.035.037.07.071.107.105.036.038.072.073.11.108.035.036.07.07.106.104l.109.108c.035.036.071.07.107.105.035.036.071.071.108.106.035.037.071.071.108.106.035.037.071.071.107.106.035.037.072.072.109.107.035.037.07.071.107.105.035.037.072.072.109.107.035.037.071.071.107.106.035.037.072.072.109.107.035.037.071.071.107.105.035.037.071.071.107.106.035.037.071.072.108.107.035.037.071.071.107.106.036.037.072.072.109.107.035.037.071.071.107.106.035.037.071.071.108.106.035.037.071.072.108.107.035.037.071.071.108.106.035.037.071.071.107.106.035.037.071.071.108.106.035.037.071.072.108.106.035.037.071.072.108.106l.028.034H19.65V45h.107v.105h.108v.106h.108v.106h.108v.105h.107v.105h.108v.105h.108v.106h.107v.106h.108v.105h.108v.105h.108v.105h.108v.105h.108v.106h.108v.106h.108v.105h.107v.105h.108v.114h.108v.106h.108v.105h.108v.106h.107v.104h.108v.106h.108v.106h.107v.105h.108v.105h.108v.106h.108v.106h.108v.105h.108v.105h.108v.105h.108v.106h.108v.104h.108v.106h.108v.114h.108v.105h.108v.105h.107v.106h.108v.106h.108v.105h.107v.105h.108v.105h.107v.105h.108v.106h.108v.106h.107v.105h.108v.106h.108v.106h.108v.105h.108v.105h.108v.105h.108v.105h.108v.106h.108v.106h.108v.104h.108v.106h.107v.105h.108v.106h.108v.106h.108v.105h.108v.105h.107v.106h.108v.106h.107v.105h.108v.105h.107v.105h.108v.105h.108v.106h.108v.106h.12v.105h.108v.105h.108v.105h.107v.106h.108v.106h.108v.105h.108v.105h.108v.106h.107v.104h.108v.106h.108v.106h.108v.106h.108v.104h.107v.106h.108v.106h.108v.105h.108v.106h.107v.104h.108v.107h.108v.105h.108v.105h.107v.105h.108v.105h.108v.107h.107v.104h.114v.106h.107v.176h.109v.106h.107v.106h.108v.104h.108v.106h.107v.106h.108v.104h.107v.106h.108v.106h.108v.105h.107v.106h.108v.106h.108v.105h.108v.105h.107v.105h.108v.105h.108v.106h.108v.113h.108v.105h.107v.105h.108v.105h.108v.105h.108v.107h.107v.105h.108v.105h.108v.106h.106v.104h.106v.106h.108v.106h.108v.106h.107v.104h.106v.106h.108v.106h.107v.105h.107v.114h.107v.104h.108v.106h.106v.106h.108v.105h.106v.105h.108v.105h.108v.107h.107v.104h.107v.106h.107v.105h.107v.105h.107v.106h.107v.105h.108v.106h.106v.106h.108v.106h.106v.104h.108v.106h.108v.105h.107v.105h.106v.105h.108v.107h.107v.104h.107v.106h.107v.105h.108v.106h.106v.104h.107v.107h.107v.105h.108v.106h.106v.104h.109v.106h.107v.106h.107v.105h.106v.105h.108v.105h.106v.105h.108v.106h.107v.106h.108v.105h.106v.106h.107v.106h.107v.105h.109v.105h.106v.105h.108v.105h.106v.106h.108v.106h.106v.105h.108v.105h.107v.131h.107v.104h.107v.106h.107v.105h.107v.105h.107v.106h.136v.106h.108v.105h.106v.105h.108v.105h.106v.105h.108v.106h.107v.106h.107v.105h.107v.106h.107v.104h.107v.107h.107v.105h.108v.105h.106v.105h.108v.106h.108v.106h.106v.104h.106v.107h.109v.104h.107v.106h.107v.166h.107v.105h.107v.105h.107v.106h.107v.105h.107v.106h.108v.105h.106v.105h.108v.106h.108v.106h.107v.104h.106v.106h.108v.105h.107v.105h.107v.106h.107v.106h.108v.105h.106v.105h.107v.107h.107v.104h.107v.106h.107v.105h.109v.105h.107v.106h.107v.106h.106v.105h.16v.105h.106v.105h.108v.106h.108v.106h.106v.105h.108v.105h.107v.106h.107v.104h.107v.123h.107v.105h.107v.105h.107v.105h.108v.106h.106v.106h.108v.105h.106v.105h.108v.105h.108v.106h.107v.106h.107v.105h.107v.105h.107v.106h.107v.106h.107v.104h.107v.106h.107v.105h.108v.106h.106v.106h.108v.104h.106v.106h.108v.105h.107v.107h.108v.104h.107v.106h.107v.105h.107v.106h.107v.104h.107v.106h.107v.106h.107v.105h.108v.105h.106v.106h.108v.122h.107v.105h.108v.105h.106v.105h.108v.106h.107v.106h.107v.105h.107v.105h.107v.106h.107v.104h.107v.106h.148v.106h.107v.105h.108v.105h.108v.106h.106v.106h.108v.104h.106v.106h.108v.105h.107v.106h.107v.106h.107v.105h.107v.105h.107v.106h.107v.106h.108v.104h.106v.106h.108V77h5.198v-3.509h.013v.106h.106v.105h.108v.105h.108v.106h.107v.106h.107v.105h.107v.105h.107v.106h.107v.104h.107v.106h.107v.106h.107v.105h.108v.105h.106v.107h.108v.104h.108v.106h.107v.105h.107v.105h.107v.106h.106v.106h.108v.105h.107v.105h.107v.105h.107v.106h.108v.106h.106v.105h.108v.105h.106v.106h.109v.106h.106v.105h.108v.105h.107v.106h.107V77h5.199v-6.061h.021v.106h.108v.104h.107v.106h.107v.106h.107v.105h.107v.106h.107v.106h.107v.105h.175v.105h.106v.106h.108v.104h.107v.106h.107v.106h.107v.105h.108v.105h.106v.105h.107v.107h.108v.105h.108v.106h.106v.104h.106v.106h.108v.106h.108v.105h.107v.105h.107v.105h.107v.105h.107v.106h.107v.106h.107v.105h.108v.106h.106v.106h.108v.105h.106v.105h.13v.105h.108v.105h.106v.106h.108v.104h.106v.107h.109v.105h.107v.105h.107v.106h.106v.106h.108v.105h.107v.105h.107v.106h.107v.104h.107v.106h.107v.106h.107v.105h.107v.106h.109v.106h.106v.105h.108v.105h.106v.106h.108v.104h.106v.107h.108V77h5.199v-9.533c.019-2.925-.223-5.248-1.746-6.574z" fill="url(#d)" opacity=".5"/><g fill="#FFF"><path d="M28.317 27.666h5.201v2.601c.719-1.362 2.58-2.601 5.199-2.601 5.452 0 6.066 3.135 6.066 7.801V45h-5.2v-8.667c0-2.009.163-4.333-2.601-4.333-3.467 0-3.467 2.073-3.467 4.333V45h-5.2l.002-17.334zm-8.667 0h5.2V45h-5.2z"/><circle cx="22.25" cy="22.033" r="3.033"/></g></svg>