<svg height="64" viewBox="0 0 64 64" width="64" xmlns="http://www.w3.org/2000/svg" xmlns:xlink="http://www.w3.org/1999/xlink"><linearGradient gradientTransform="matrix(1 0 0 -1 -822 -1026)" gradientUnits="userSpaceOnUse" id="a" x1="886.03" x2="854.03" y1="-1089.998" y2="-1057.998"><stop offset=".316" stop-color="#fff" stop-opacity="0"/><stop offset=".351" stop-color="#e9e9e9" stop-opacity=".05"/><stop offset=".454" stop-color="#acacac" stop-opacity=".202"/><stop offset=".557" stop-color="#787878" stop-opacity=".352"/><stop offset=".657" stop-color="#4d4d4d" stop-opacity=".498"/><stop offset=".753" stop-color="#2b2b2b" stop-opacity=".638"/><stop offset=".844" stop-color="#131313" stop-opacity=".772"/><stop offset=".929" stop-color="#050505" stop-opacity=".896"/><stop offset="1"/></linearGradient><path fill="url(#a)" opacity=".2" d="M64.029 64V30.059L49 15.029 15.059 48.971 30.088 64z"/><circle cx="32" cy="32" fill="#282828" r="24"/><defs><circle cx="32.029" cy="32" id="b" r="24"/></defs><clipPath id="c"><use overflow="visible" xlink:href="#b"/></clipPath><linearGradient gradientTransform="matrix(1 0 0 -1 -274 -299)" gradientUnits="userSpaceOnUse" id="d" x1="348.547" x2="296.094" y1="-370.836" y2="-318.384"><stop offset=".525" stop-opacity="0"/><stop offset="1"/></linearGradient><path clip-path="url(#c)" d="M74.375 61c0-4.494-.809-5.756-1.698-6.691-.032-.035-.065-.072-.101-.106a1.4 1.4 0 0 0-.1-.104c-.031-.037-.064-.07-.098-.105h-.001c.208-.504 1.029-2.319-.035-4.99l-.063.004c-.014-.038-.021-.072-.035-.109 0 0-.025 0-.063.004-.016-.039-.021-.072-.037-.11l-.063.004c-.016-.038-.021-.071-.036-.11l-.063.004c-.015-.037-.021-.07-.035-.108l-.063.004c-.015-.038-.021-.071-.036-.11l-.063.004c-.016-.037-.021-.072-.036-.109l-.063.004c-.015-.038-.021-.072-.035-.109 0 0-.025 0-.063.004-.015-.039-.021-.072-.036-.111l-.063.005c-.016-.038-.021-.072-.036-.11l-.063.004c-.015-.037-.021-.072-.035-.109 0 0-.025 0-.063.004-.015-.038-.021-.072-.036-.11l-.063.004c-.016-.038-.021-.071-.037-.108 0 0-.024 0-.063.004-.015-.038-.021-.072-.036-.11l-.063.004c-.015-.038-.021-.071-.036-.11l-.063.004c-.016-.037-.021-.071-.037-.109l-.063.004c-.015-.038-.021-.072-.036-.109 0 0-.023 0-.063.004-.016-.039-.021-.072-.037-.11l-.063.004c-.015-.038-.021-.072-.035-.11l-.063.004c-.015-.037-.021-.07-.036-.108l-.063.004c-.016-.038-.021-.072-.037-.11l-.063.004c-.016-.037-.021-.072-.036-.109l-.063.004c-.014-.038-.021-.072-.035-.11l-.063.005c-.016-.039-.021-.072-.037-.111l-.063.004c-.016-.037-.021-.071-.036-.109l-.063.004c-.015-.037-.021-.072-.035-.109 0 0-.024 0-.063.004-.015-.039-.021-.071-.036-.109l-.064.004c-.014-.038-.021-.072-.035-.109 0 0-.023 0-.063.004-.016-.039-.021-.072-.037-.11l-.063.004c-.016-.038-.021-.071-.036-.11l-.063.004c-.015-.037-.021-.071-.035-.109l-.063.004c-.015-.038-.021-.072-.036-.109 0 0-.025 0-.063.004-.016-.039-.021-.072-.036-.109l-.063.004c-.015-.038-.021-.072-.035-.111l-.063.004c-.015-.037-.021-.07-.036-.109l-.063.005c-.016-.038-.021-.072-.036-.11l-.063.004c-.015-.037-.021-.072-.035-.109 0 0-.025 0-.063.004-.015-.038-.021-.072-.036-.11l-.063.004c-.016-.038-.021-.071-.037-.11l-.063.004c-.015-.037-.021-.071-.036-.109l-.063.004c-.015-.038-.021-.072-.036-.109 0 0-.025 0-.063.004-.016-.039-.021-.072-.037-.11l-.063.004c-.016-.038-.021-.071-.036-.108 0 0-.024 0-.063.004-.015-.039-.021-.072-.035-.11l-.063.004c-.015-.038-.021-.072-.036-.11l-.063.004c-.016-.037-.021-.072-.036-.109l-.063.004c-.015-.038-.021-.072-.035-.11l-.063.005c-.015-.039-.021-.072-.036-.109 0 0-.025 0-.063.004-.016-.038-.021-.072-.036-.111l-.063.004c-.015-.037-.021-.07-.035-.109l-.063.004c-.015-.037-.021-.071-.036-.109l-.063.004c-.016-.038-.021-.072-.037-.109 0 0-.024 0-.063.004-.015-.039-.021-.072-.035-.11l-.063.004c-.015-.038-.021-.071-.036-.11l-.063.004c-.016-.037-.021-.07-.037-.108l-.063.004c-.016-.038-.021-.071-.036-.11 0 0-.024 0-.063.004-.015-.039-.021-.071-.035-.109l-.063.004c-.015-.038-.021-.072-.036-.109 0 0-.024 0-.063.004-.016-.039-.021-.072-.036-.11l-.063.004c-.015-.038-.021-.072-.035-.11l-.063.004c-.015-.037-.021-.072-.036-.109 0 0-.025 0-.063.004-.016-.038-.021-.072-.036-.11l-.063.004c-.015-.038-.021-.071-.035-.108 0 0-.024 0-.063.004-.015-.038-.021-.072-.036-.11l-.063.004c-.016-.038-.021-.071-.037-.11l-.063.004c-.015-.037-.021-.071-.035-.109l-.063.004c-.015-.038-.021-.072-.036-.109 0 0-.023 0-.063.004-.016-.039-.021-.072-.037-.11l-.063.004c-.016-.038-.021-.072-.036-.11l-.063.004c-.014-.037-.021-.07-.035-.108l-.063.004c-.015-.038-.021-.072-.036-.111l-.063.005c-.016-.039-.021-.072-.036-.109l-.063.004c-.015-.038-.021-.072-.035-.11l-.063.005c-.015-.039-.021-.072-.036-.111l-.063.005c-.016-.038-.021-.072-.036-.11l-.063.004c-.015-.037-.021-.072-.035-.109 0 0-.025 0-.063.004-.015-.038-.021-.072-.036-.11l-.063.004c-.016-.038-.021-.071-.037-.108 0 0-.023 0-.063.004-.015-.039-.021-.072-.035-.111l-.064.004c-.016-.037-.021-.07-.036-.109l-.063.004c-.015-.037-.021-.071-.035-.109l-.063.004c-.015-.038-.021-.072-.036-.109 0 0-.025 0-.063.004-.016-.039-.021-.072-.036-.11l-.063.004c-.015-.038-.021-.072-.035-.11l-.063.004c-.015-.037-.021-.07-.036-.109l-.063.005c-.016-.038-.021-.072-.037-.111l-.063.004c-.015-.038-.021-.071-.036-.108 0 0-.024 0-.063.004-.015-.038-.021-.072-.036-.11l-.063.004c-.016-.038-.021-.071-.037-.11l-.063.004c-.016-.037-.021-.071-.036-.109l-.063.004c-.014-.038-.021-.072-.035-.109 0 0-.025 0-.063.004-.015-.039-.021-.071-.036-.109l-.063.004c-.016-.038-.021-.072-.036-.109 0 0-.024 0-.063.004-.015-.039-.021-.072-.035-.11l-.063.004c-.015-.038-.021-.072-.036-.11l-.063.004c-.016-.037-.021-.072-.036-.109l-.063.004c-.015-.038-.021-.072-.035-.11l-.063.005c-.015-.039-.021-.072-.036-.111l-.063.005c-.016-.038-.021-.071-.036-.109l-.063.004c-.015-.038-.021-.071-.035-.11l-.063.004c-.015-.037-.021-.071-.036-.109l-.063.004c-.016-.038-.021-.072-.037-.109 0 0-.024 0-.063.004-.015-.039-.021-.072-.036-.11l-.063.004c-.015-.038-.021-.071-.036-.11l-.063.004c-.016-.037-.021-.071-.037-.109l-.063.004c-.016-.038-.021-.072-.036-.109 0 0-.024 0-.063.004-.014-.039-.021-.072-.035-.11l-.063.004c-.015-.038-.021-.071-.036-.108 0 0-.024 0-.063.004-.016-.039-.021-.072-.036-.111l-.063.004c-.015-.038-.021-.071-.035-.109l-.063.004c-.015-.037-.021-.072-.036-.109 0 0-.025 0-.063.004-.016-.038-.021-.072-.036-.11l-.063.004c-.015-.038-.021-.071-.035-.11l-.063.004c-.015-.037-.021-.071-.036-.109l-.063.004c-.016-.038-.021-.07-.036-.109l-.063.004c-.015-.037-.021-.071-.035-.11l-.063.004c-.015-.038-.021-.071-.036-.108 0 0-.025 0-.063.004-.016-.039-.021-.072-.037-.11l-.063.004c-.015-.038-.021-.072-.036-.11l-.063.004c-.015-.037-.021-.072-.036-.109l-.063.004c-.016-.038-.021-.072-.037-.11l-.063.005c-.016-.039-.021-.072-.036-.109l-.063.004c-.014-.038-.021-.072-.035-.11l-.063.005c-.015-.039-.021-.072-.036-.111l-.063.005c-.016-.038-.021-.072-.036-.11l-.063.004c-.015-.037-.021-.072-.035-.109 0 0-.024 0-.063.004-.015-.038-.021-.071-.036-.109l-.063.004c-.016-.038-.021-.072-.036-.111l-.063.004c-.015-.037-.021-.07-.035-.108l-.063.004c-.015-.038-.021-.071-.036-.11l-.063.004c-.016-.037-.021-.071-.036-.109l-.063.004c-.015-.038-.021-.072-.035-.109 0 0-.025 0-.063.004-.015-.039-.021-.072-.036-.11l-.063.004c-.016-.038-.021-.072-.037-.11l-.063.004c-.015-.037-.021-.072-.036-.109l-.063.004c-.015-.038-.021-.072-.036-.11l-.063.004c-.016-.038-.021-.071-.037-.108 0 0-.024 0-.063.004-.016-.038-.021-.072-.036-.11l-.063.004c-.014-.038-.021-.071-.035-.11l-.063.004c-.015-.037-.021-.071-.036-.109l-.063.004c-.016-.038-.021-.072-.036-.109 0 0-.024 0-.063.004-.015-.039-.021-.072-.035-.11l-.063.004c-.015-.038-.021-.071-.036-.11l-.063.004c-.016-.037-.021-.071-.036-.109l-.063.004c-.015-.038-.021-.071-.035-.109l-.063.004c-.015-.037-.021-.072-.036-.109l-.063.004c-.016-.038-.021-.072-.036-.11l-.063.005c-.015-.039-.021-.072-.035-.111l-.063.005c-.015-.038-.021-.072-.036-.11l-.063.004c-.016-.037-.021-.072-.037-.109 0 0-.024 0-.063.004-.015-.038-.021-.072-.036-.11l-.063.004c-.015-.038-.021-.071-.036-.11l-.063.004c-.016-.037-.021-.07-.037-.108l-.063.004c-.016-.038-.021-.071-.036-.11l-.063.004c-.014-.037-.021-.071-.035-.109l-.063.004c-.015-.038-.021-.072-.036-.109 0 0-.024 0-.063.004-.016-.039-.021-.072-.036-.11l-.063.004c-.015-.038-.021-.071-.035-.109l-.063.004c-.015-.038-.021-.072-.036-.111l-.063.004c-.016-.038-.021-.072-.036-.11l-.063.004c-.015-.038-.021-.072-.035-.11l-.063.004c-.015-.038-.021-.072-.036-.11l-.064.004c-.015-.038-.021-.072-.035-.111l-.063.004c-.015-.038-.021-.072-.036-.11l-.063.004c-.016-.038-.021-.072-.036-.11l-.063.004c-.015-.038-.021-.071-.035-.109l-.063.004c-.015-.038-.021-.072-.036-.111l-.063.004c-.016-.038-.021-.072-.036-.11l-.063.004c-.015-.038-.021-.072-.035-.11l-.063.004c-.015-.038-.021-.072-.036-.11l-.063.004c-.016-.038-.021-.072-.037-.11l-.063.004c-.015-.038-.021-.072-.036-.111l-.063.004c-.016-.038-.021-.071-.036-.109l-.063.004c-.015-.038-.021-.072-.035-.11l-.063.004c-.015-.038-.021-.072-.036-.11l-.063.004c-.016-.038-.021-.072-.036-.111l-.063.004c-.015-.038-.021-.072-.035-.11l-.063.004c-.015-.038-.021-.072-.036-.11l-.063.004c-.016-.038-.021-.072-.037-.11l-.063.004c-.015-.038-.021-.072-.035-.111l-.063.004c-.015-.038-.021-.072-.036-.11l-.063.004c-.016-.038-.021-.072-.037-.11l-.063.004c-.016-.038-.021-.072-.036-.11l-.063.004c-.014-.038-.021-.072-.035-.11l-.063.004c-.016-.038-.021-.072-.037-.11l-.063.004c-.016-.038-.021-.071-.036-.109l-.063.004c-.015-.038-.021-.073-.035-.111l-.064.004c-.015-.038-.021-.072-.035-.11l-.063.004c-.015-.038-.021-.072-.036-.11l-.063.004c-.016-.038-.021-.072-.037-.11l-.063.004c-.016-.038-.021-.072-.036-.11l-.063.004c-.014-.038-.021-.072-.035-.11l-.063.004c-.016-.038-.021-.072-.037-.11l-.063.004c-.016-.038-.021-.071-.036-.109l-.063.004c-.015-.038-.021-.073-.035-.111l-.063.004c-.015-.038-.021-.072-.036-.11l-.063.004c-.016-.038-.021-.071-.036-.109l-.063.004c-.015-.038-.021-.072-.035-.11l-.063.004c-.015-.038-.021-.072-.036-.11l-.063.004c-.016-.038-.021-.072-.036-.11l-.063.004c-.015-.038-.021-.072-.035-.11l-.063.004c-.015-.038-.021-.072-.036-.11l-.063.004c-.016-.038-.021-.072-.037-.11l-.063.004c-.015-.038-.021-.073-.035-.111l-.063.004c-.015-.038-.021-.071-.036-.109l-.063.004c-.016-.038-.021-.072-.037-.11l-.063.004c-.016-.038-.021-.072-.036-.11l-.063.004c-.014-.038-.021-.072-.035-.11l-.063.004c-.016-.038-.021-.072-.037-.11l-.063.004c-.016-.038-.021-.072-.036-.11l-.063.004c-.015-.038-.021-.072-.035-.111l-.063.004c-.015-.038-.021-.072-.036-.11l-.063.004c-.016-.038-.021-.072-.036-.11l-.063.004c-.015-.038-.021-.072-.035-.11l-.063.004c-.015-.038-.021-.072-.036-.111l-.063.004c-.016-.038-.021-.072-.036-.11l-.063.004c-.015-.038-.021-.072-.035-.11l-.063.004c-.015-.038-.021-.071-.036-.109l-.063.004c-.016-.038-.021-.072-.037-.111l-.063.004c-.015-.038-.021-.072-.035-.11l-.063.004c-.015-.038-.021-.072-.036-.11l-.063.004c-.016-.038-.021-.072-.037-.11l-.063.004c-.016-.038-.021-.072-.036-.11l-.063.004c-.014-.038-.021-.072-.035-.111l-.063.004c-.016-.038-.021-.071-.037-.109l-.063.004c-.016-.038-.021-.072-.036-.11l-.063.004c-.015-.038-.021-.072-.035-.11l-.063.004c-.015-.038-.021-.072-.036-.11l-.063.004c-.015-.038-.021-.072-.036-.11l-.063.004c-.016-.038-.021-.072-.037-.11l-.063.004c-.016-.038-.021-.072-.036-.11l-.063.004c-.014-.038-.021-.072-.035-.11l-.063.004c-.016-.038-.021-.072-.037-.11l-.063.004c-.016-.038-.021-.072-.036-.11l-.063.004c-.015-.038-.021-.072-.035-.11l-.063.004c-.015-.038-.021-.072-.036-.11l-.063.004c-.016-.038-.021-.072-.036-.11l-.063.004c-.015-.038-.021-.072-.035-.11l-.063.004c-.015-.038-.021-.072-.036-.11l-.064.004c-.014-.038-.021-.072-.035-.11l-.063.004c-.015-.038-.021-.072-.036-.111l-.063.004c-.016-.038-.021-.072-.036-.11l-.063.004c-.015-.038-.021-.072-.035-.11l-.063.004c-.015-.038-.021-.072-.036-.11l-.063.004c-.016-.038-.021-.072-.036-.11l-.063.004c-.015-.038-.021-.072-.035-.11l-.063.004c-.015-.038-.021-.072-.036-.11l-.063.004c-.016-.038-.021-.072-.036-.11l-.063.004c-.015-.038-.021-.072-.035-.11l-.063.004c-.015-.038-.021-.072-.036-.11l-.063.004c-.016-.038-.021-.072-.037-.11l-.063.004c-.015-.038-.021-.072-.036-.111l-.063.004c-.016-.038-.021-.072-.036-.11l-.063.004c-.015-.038-.021-.072-.035-.111l-.063.004c-.015-.038-.021-.071-.036-.109l-.064.004c-.015-.038-.021-.072-.035-.111l-.063.004c-.015-.038-.021-.072-.036-.11l-.063.004c-.016-.038-.021-.072-.036-.11l-.063.004c-.015-.038-.021-.072-.035-.11l-.063.004c-.015-.038-.021-.072-.036-.111l-.063.004c-.016-.038-.021-.072-.036-.11l-.063.004c-.015-.038-.021-.072-.035-.11l-.063.004c-.015-.038-.021-.072-.036-.11l-.063.004c-.016-.038-.021-.072-.037-.11l-.063.004c-.015-.038-.021-.072-.035-.11l-.063.004c-.015-.038-.021-.072-.036-.11l-.063.004c-.016-.038-.021-.072-.037-.11l-.063.004c-.016-.038-.021-.072-.036-.11l-.063.004c-.014-.038-.021-.072-.035-.11l-.064.004c-.015-.038-.021-.072-.035-.11l-.063.004c-.015-.038-.021-.072-.036-.11l-.063.004c-.016-.038-.021-.072-.037-.11l-.063.004c-.015-.038-.021-.072-.035-.11l-.063.004c-.015-.038-.021-.072-.036-.11l-.064.004c-.015-.038-.021-.072-.035-.11l-.063.004c-.015-.038-.021-.072-.036-.111l-.063.004c-.016-.038-.021-.072-.036-.11l-.063.004c-.015-.038-.021-.072-.035-.11l-.063.004c-.015-.038-.021-.072-.036-.11l-.063.004c-.016-.038-.021-.072-.037-.11l-.063.004c-.015-.038-.021-.072-.035-.11l-.063.004c-.015-.038-.021-.072-.036-.11l-.063.004c-.016-.038-.021-.072-.037-.11l-.063.004c-.016-.038-.021-.072-.036-.11l-.063.004c-.014-.038-.021-.072-.035-.11l-.063.004c-.016-.038-.021-.072-.037-.11l-.063.004c-.016-.038-.021-.072-.036-.11l-.063.004c-.015-.038-.021-.072-.035-.11l-.063.004c-.015-.038-.021-.072-.036-.111l-.063.004c-.016-.038-.021-.071-.036-.109l-.063.004c-.015-.038-.021-.072-.035-.111l-.063.004c-.015-.038-.021-.072-.036-.11l-.064.004c-.014-.038-.021-.072-.035-.111l-.063.004c-.016-.038-.021-.072-.037-.11l-.063.004c-.016-.038-.021-.072-.036-.11l-.063.004c-.015-.038-.021-.072-.035-.11l-.063.004c-.015-.038-.021-.072-.036-.111l-.063.004c-.016-.038-.021-.071-.036-.109l-.063.004c-.015-.038-.021-.072-.035-.111l-.063.004c-.015-.038-.021-.072-.036-.11l-.063.004c-.016-.038-.021-.072-.036-.11l-.063.004c-.015-.038-.021-.072-.035-.11 0 0-1.97 0-3.97 3-.991-.991-4-1-4.999-1-.97 0-3.808.017-4.886.918l-.051-.054c-.035-.036-.069-.075-.104-.11-.032-.034-.064-.07-.096-.102l-.102-.109c-.033-.034-.065-.071-.098-.104a5.537 5.537 0 0 0-.103-.11l-.097-.104c-.034-.036-.068-.075-.103-.109l-.094-.101-.107-.114-.093-.1c-.034-.036-.068-.074-.103-.109C25.817 17.005 24.478 17 24.478 17c-1.07 2.685-.233 4.507-.031 5-1 1-2.004 2-2.004 7 0 2.229.726 3.959 1.913 5.239l.101.108.1.106c.033.036.066.069.1.104.033.037.067.072.101.108.031.035.065.067.097.104l.1.105.096.104c.034.039.069.074.104.111l.098.104c.033.037.068.074.102.109.031.035.064.068.096.103l.104.112c.031.035.064.067.097.103.033.037.067.071.1.106.031.035.064.068.096.103.034.039.07.076.106.114.03.033.063.065.094.1.033.037.067.072.101.107.032.037.066.072.1.107.033.037.067.072.101.108.032.034.065.067.097.103.033.037.067.072.1.107.032.036.066.07.099.105.032.037.066.07.1.106l.098.104.104.109c.031.036.064.069.097.104.032.037.066.07.099.105.033.037.067.072.101.107l.098.104c.033.037.068.072.103.109.032.034.065.067.097.104l.1.106.098.104.102.108.099.104.099.104c.033.037.067.071.101.106.033.037.067.072.101.108.031.035.064.067.096.103.033.037.069.074.104.111l.098.104c.032.037.066.07.1.105.031.035.063.067.094.103.034.038.069.073.104.11.032.037.067.071.1.107.033.037.068.072.102.107.031.035.064.067.095.103.033.037.068.072.102.108.032.035.065.068.097.104l.1.107.033.039a3.91 3.91 0 0 0-.015.298c-.77.343-2.483.677-4.049-.111a.44.44 0 0 0-.032-.03c-.036-.039-.066-.074-.105-.113-.034-.034-.062-.068-.098-.104-.034-.035-.063-.07-.1-.105-.034-.036-.063-.07-.1-.106-.033-.036-.062-.069-.098-.104-.035-.037-.064-.071-.102-.108-.033-.036-.062-.069-.097-.104l-.096-.104c-.037-.038-.068-.075-.107-.113-.033-.035-.06-.066-.095-.102-.034-.036-.063-.07-.099-.105-.034-.037-.063-.07-.1-.106-.034-.036-.063-.07-.1-.107-.035-.036-.065-.071-.102-.108-.033-.034-.061-.067-.097-.104l-.099-.105c-.035-.037-.064-.07-.101-.107-.033-.035-.061-.068-.096-.104-.035-.037-.064-.071-.102-.108-.034-.036-.063-.07-.099-.106-.034-.035-.063-.07-.1-.105-.035-.036-.064-.071-.101-.107l-.099-.105c-.034-.034-.062-.068-.098-.104-.034-.035-.063-.07-.1-.107-.034-.034-.063-.068-.099-.104-.498-.528-1.269-1.09-2.33-1.09 0 0-1.368-.126-.697.507a.862.862 0 0 0 .1.105c.026.033.059.068.1.107.026.033.059.068.1.107.026.031.059.066.1.105.026.032.059.066.099.104.026.032.059.067.1.106.026.031.058.066.098.104a1.2 1.2 0 0 0 .102.108c.026.03.056.064.095.102.027.034.061.07.103.111.026.031.058.066.099.104.027.034.06.069.101.107a.93.93 0 0 0 .099.105c.026.032.059.067.099.104.026.032.059.067.1.106.026.032.059.067.1.106a.94.94 0 0 0 .1.104c.025.032.055.065.094.103.284.433.596.952.912 1.584 0 0 .298.812 1.098 1.618.035.037.067.072.104.109l.096.104c.034.036.066.071.103.108.034.035.064.07.099.105.033.035.063.07.098.105.034.035.064.069.1.104l.097.104c.034.035.065.071.101.107.034.036.065.072.102.107l.093.101c.035.038.068.075.105.113.034.034.064.069.099.104.034.036.064.071.1.106l.097.104c.033.035.064.07.099.105.035.037.067.074.104.111l.094.101c.035.036.066.073.103.108.033.035.062.069.097.104.033.035.063.07.099.106.034.035.065.07.102.107.033.035.063.069.098.104.035.037.067.074.105.113.031.031.059.063.091.098l.107.113.093.101c.035.037.067.073.104.11l.096.103c.034.036.065.071.102.108.033.035.063.07.099.104.034.037.066.073.102.108l.097.104c.034.036.065.071.102.108.033.033.062.068.097.104.034.036.065.072.102.108.033.035.063.069.098.104.034.035.065.07.101.106.034.036.064.071.1.106.034.035.065.071.102.107l.094.102c.036.037.068.074.106.112.031.033.059.065.092.099.036.039.07.078.109.117.031.031.059.063.092.098.034.037.065.072.102.109.033.034.063.069.098.104.034.036.064.071.101.106.034.037.066.072.103.109l.097.104c.033.035.063.069.098.105.034.035.064.07.1.105.033.035.063.07.097.104.036.038.069.075.107.113l.088.095c.037.039.071.078.11.118l.093.099c.035.037.067.073.104.11l.095.103c.035.037.066.072.102.108.035.037.066.073.103.11.03.031.057.063.089.096.038.04.073.08.113.12l.088.095c.035.037.067.073.104.11.034.036.064.071.1.106.034.035.064.07.1.105.034.036.064.07.1.107.032.032.061.065.094.101.036.039.07.077.109.116.03.031.057.063.089.096.036.039.069.076.107.115.033.035.063.068.099.104l.096.104c.033.035.063.07.099.105.035.037.067.073.104.11.033.034.063.069.098.104l.101.107c.033.035.063.068.099.104l.093.102c.036.038.07.076.108.115l.095.102c.034.036.065.071.101.107.035.037.066.072.103.109l.095.103c.033.034.063.069.098.104.034.036.065.072.102.108.034.035.066.072.102.107.033.035.062.069.096.104.034.036.065.071.101.106.035.037.066.073.104.11.03.032.059.063.09.099.037.037.07.076.107.113l.096.102c.033.037.064.072.101.107.034.036.063.071.101.106l.096.104c.035.037.068.074.106.112l.091.097c.035.039.069.077.107.116.033.035.063.069.1.104l.09.099c.037.039.071.078.111.117.031.034.061.067.096.101.031.035.063.07.098.105l.096.104c.036.039.07.077.11.116l.088.097c.034.036.067.073.104.11.032.035.063.069.099.104.034.037.063.071.101.106.033.036.063.071.1.106.033.035.063.07.101.105.033.037.063.072.101.107l.096.104.104.11c.033.034.063.069.099.104.031.034.063.069.098.104.033.036.064.071.102.108.033.035.063.069.1.104.033.036.063.071.1.106.033.035.064.069.1.105.033.035.063.07.101.105.032.035.063.069.099.104.033.037.065.073.102.108.035.037.066.072.103.109l.093.098c.034.037.066.074.104.111l.093.102.11.117.094.101c.034.035.063.069.101.104l.096.104c.033.036.064.071.102.108.034.035.065.072.102.107.033.035.063.07.1.105.035.037.068.074.105.111l.094.101.097.104c.035.036.068.073.106.111l.09.098c.037.039.07.077.109.116l.09.097c.035.039.068.075.106.114.03.032.06.063.091.099.036.039.069.076.108.115l.097.104c.033.035.063.07.1.105.033.035.063.07.101.106.034.036.065.071.103.108l.096.103c.033.036.063.069.098.104.035.037.066.071.104.108.033.035.063.07.099.106.034.035.063.07.101.104.032.035.063.07.099.104.032.035.062.07.097.104l.107.115.092.097c.035.038.068.075.105.113l.098.104c.033.035.063.07.1.105.033.036.063.07.1.105l.095.104c.036.038.069.077.108.116l.09.096c.037.039.07.077.108.116.031.031.06.064.093.098.033.036.064.072.102.109.033.035.063.07.099.105.034.035.065.07.103.106.033.037.066.073.103.11l.093.1c.036.038.069.075.107.113l.094.101c.032.035.063.069.098.104.035.037.065.072.103.108.034.036.063.071.101.106.033.035.063.07.1.105.033.036.064.07.1.106l.1.106c.033.034.063.069.101.105.033.035.063.07.101.105.032.035.063.07.1.106.033.035.063.069.1.104.033.037.063.07.1.106.033.035.063.069.099.104.033.035.063.07.099.105.034.037.066.074.104.111l.098.104c.033.035.063.07.099.105l.095.101c.036.039.069.077.108.116l.09.098c.037.038.07.076.109.116l.09.097c.036.039.07.076.108.115l.094.1c.032.035.062.069.097.104.035.036.066.073.104.11.034.035.064.07.1.104.035.038.068.074.105.112l.09.098c.034.035.064.071.102.107.035.035.065.072.103.107.033.035.063.07.101.105.032.036.063.07.1.107.033.035.063.069.1.104.034.038.067.074.104.11a8.458 8.458 0 0 0 .192.206c.034.037.064.072.102.107.033.037.063.072.101.108.034.036.063.071.101.106l.094.102c.035.037.066.074.105.111.033.037.065.072.103.109.032.035.063.069.099.104.032.035.063.069.098.104.033.035.063.07.101.104.032.037.063.072.101.107.032.035.063.07.098.105l.098.104c.034.036.064.072.102.108.033.036.065.073.104.11.033.035.063.068.1.104l.094.102c.035.037.065.073.104.109.033.036.063.07.1.105.034.037.065.074.104.11.031.034.061.067.095.101.035.039.067.074.104.111l.091.098c.036.039.067.076.106.115l.096.102c.033.037.063.072.101.107.034.037.065.072.103.108.033.035.063.069.1.104.031.035.061.067.096.103.033.038.065.073.104.11.033.035.063.07.097.104.034.036.065.071.103.108.033.035.063.07.1.104.033.036.063.071.1.107.033.034.063.069.101.104.032.036.063.07.099.106.033.034.063.069.1.106.033.034.063.069.1.104.033.036.064.071.1.106.034.035.064.07.1.105l.098.104c.033.037.064.071.102.107.033.037.065.073.103.11.034.036.065.071.103.106l.096.104c.033.035.063.07.101.107.033.034.063.069.099.104l.096.103c.035.037.066.073.104.11.034.036.065.071.102.106.033.035.063.07.099.105.034.036.065.072.103.107l.095.103c.034.037.065.072.103.108.033.035.063.07.1.107.033.034.063.069.101.104.034.036.065.073.103.11l.094.1c.035.037.068.074.105.111l.092.101c.035.037.066.073.104.108.034.037.064.071.1.107.034.035.064.07.101.105.034.035.063.07.1.105.033.036.063.07.101.105.033.035.063.07.1.107.033.034.063.069.1.105.033.035.063.07.101.105.032.035.063.07.1.106l.097.104c.033.034.063.069.1.104.033.037.064.073.102.108.035.037.067.074.104.11.032.035.063.069.098.104.033.035.063.07.099.104.031.034.061.067.095.102.034.037.065.074.104.111.032.036.063.071.098.106.035.036.064.071.102.106.033.036.064.071.102.108l.098.103c.033.037.064.072.102.108l.094.103c.035.035.066.072.104.108.034.036.064.071.1.106s.064.07.101.105c.034.036.063.071.1.106l.097.104c.035.037.067.074.105.112l.094.1c.034.038.067.075.105.113a5.248 5.248 0 0 0 2.216 1.393v.051h.101v.105h.1v.106h.1v.106h.1v.105h.101v.105h.101v.105h.099v.105h.1v.106h.101v.106h.1v.105h.1v.105h.1v.106h.1v.105h.1v.106h.101v.105h.101v.105h.1l-.001.106h.1v.106h.101v.105h.1v.105h.1v.105h.101v.105h.1v.106h.101v.106h.099v.105h.101v.105h.1v.107h.1v.104h.1v.106h.1v.105h.1v.105h.1v.106h.101v.106h.099v.104h.101v.106h.1v.105h.101v.106h.1v.106h7.996v-7c0-.791-.438-2.513-1-3 4.218-.332 7.85-2.84 7.85-7.84z" fill="url(#d)"/><path d="M37.441 47h-7.996s.011-2.373 0-4c-5.473 1.178-7-3-7-3-1-2-2-3-2-3-2-1.188 0-1 0-1 2 0 3 2 3 2 1.755 2.98 4.878 2.5 6 2 0-1 .438-2.512 1-3-4.368-.492-8.004-3-8.004-8s1.004-6 2.004-7c-.202-.493-1.039-2.315.031-5 0 0 1.965 0 3.965 3 .991-.991 4-1 5.001-1 .998 0 4.008.009 4.998 1 2-3 3.97-3 3.97-3 1.069 2.685.233 4.507.03 5 1 1 2 2 2 7s-3.631 7.508-8 8c.563.488 1 2.209 1 3v7z" fill="#FFF"/></svg>